# Blender v2.79 (sub 0) OBJ File: 'HarvestRover.blend'
# www.blender.org
o Circle.001_Circle.003
v 0.000000 0.164771 -7.338661
v -1.429883 0.164771 -7.197829
v -2.804816 0.164771 -6.780748
v -4.071961 0.164771 -6.103445
v -5.182623 0.164771 -5.191948
v -6.094121 0.164771 -4.081285
v -6.771424 0.164771 -2.814140
v -7.188505 0.164771 -1.439207
v -7.329337 0.164771 -0.009325
v -7.188505 0.164771 1.420557
v -6.771424 0.164771 2.795490
v -6.094121 0.164771 4.062636
v -5.182623 0.164771 5.173299
v -4.071961 0.164771 6.084796
v -2.804814 0.164771 6.762100
v -1.429881 0.164771 7.179181
v 0.000002 0.164771 7.320012
v 1.429886 0.164771 7.179180
v 2.804819 0.164771 6.762098
v 4.071965 0.164771 6.084794
v 5.182627 0.164771 5.173296
v 6.094123 0.164771 4.062633
v 6.771426 0.164771 2.795486
v 7.188506 0.164771 1.420552
v 7.329337 0.164771 -0.009332
v 7.188504 0.164771 -1.439215
v 6.771420 0.164771 -2.814148
v 6.094116 0.164771 -4.081293
v 5.182617 0.164771 -5.191954
v 4.071953 0.164771 -6.103451
v 2.804806 0.164771 -6.780753
v 1.429872 0.164771 -7.197832
vn 0.0000 1.0000 0.0000
s off
f 1//1 9//1 17//1
f 1//1 2//1 5//1
f 2//1 3//1 5//1
f 3//1 4//1 5//1
f 5//1 6//1 7//1
f 7//1 8//1 5//1
f 8//1 9//1 5//1
f 9//1 10//1 11//1
f 11//1 12//1 13//1
f 13//1 14//1 15//1
f 15//1 16//1 13//1
f 16//1 17//1 13//1
f 17//1 18//1 19//1
f 19//1 20//1 21//1
f 21//1 22//1 23//1
f 23//1 24//1 21//1
f 24//1 25//1 21//1
f 25//1 26//1 27//1
f 27//1 28//1 29//1
f 29//1 30//1 31//1
f 31//1 32//1 29//1
f 32//1 1//1 29//1
f 9//1 11//1 17//1
f 11//1 13//1 17//1
f 17//1 19//1 25//1
f 19//1 21//1 25//1
f 25//1 27//1 29//1
f 1//1 5//1 9//1
f 25//1 29//1 17//1
f 29//1 1//1 17//1
